<svg width="92" height="32" viewBox="0 0 92 32" fill="none" xmlns="http://www.w3.org/2000/svg">
<g clip-path="url(#clip0_8_1497)">
<path d="M26.0548 26.1055C26.5686 26.1055 26.9938 26.2794 27.3349 26.6231C27.6844 26.9668 27.8529 27.3954 27.8529 27.9046C27.8529 28.4138 27.6844 28.8338 27.3349 29.186C26.9938 29.5297 26.5686 29.7037 26.0548 29.7037H24.9474V31.5792H24.0547V26.1097H26.0548V26.1055ZM26.0548 28.855C26.5812 28.855 26.9602 28.4562 26.9602 27.9003C26.9602 27.3445 26.5812 26.9456 26.0548 26.9456H24.9474V28.8508H26.0548V28.855Z" fill="#103559"/>
<path d="M29.1969 30.0131C29.326 30.5612 29.829 30.8626 30.5101 30.8626C30.9776 30.8626 31.3292 30.71 31.5696 30.4163L32.2997 30.7922C31.899 31.3167 31.2981 31.579 30.5057 31.579C29.8424 31.579 29.2993 31.3989 28.8897 31.0466C28.4802 30.6865 28.2754 30.2324 28.2754 29.6843C28.2754 29.1362 28.4802 28.6978 28.8808 28.3376C29.2815 27.9696 29.8068 27.7896 30.4389 27.7896C31.0354 27.7896 31.5296 27.9775 31.9124 28.3454C32.2997 28.7134 32.4956 29.1675 32.4956 29.6921C32.4956 29.7704 32.4867 29.88 32.4644 30.017H29.2013L29.1969 30.0131ZM31.6008 29.3789C31.4761 28.7956 31.0087 28.4903 30.43 28.4903C29.7756 28.4903 29.3171 28.8309 29.1924 29.3789H31.6008Z" fill="#103559"/>
<path d="M35.0263 28.4369H34.0576V30.3177C34.0576 30.8198 34.3847 30.8113 35.0263 30.7815V31.5432C33.7347 31.7006 33.2121 31.3474 33.2121 30.3219V28.4412H32.4941V27.6242H33.2121V26.7774L34.0576 26.5264V27.6242H35.0263V28.4412V28.4369Z" fill="#103559"/>
<path d="M37.109 29.3453C37.6797 29.4668 38.4192 29.698 38.4031 30.47C38.4031 30.8149 38.2624 31.0892 37.9891 31.2851C37.7159 31.4811 37.3743 31.579 36.9603 31.579C36.2289 31.579 35.6863 31.2616 35.4492 30.7365L36.1364 30.3485C36.261 30.6934 36.5343 30.8697 36.9563 30.8697C37.3783 30.8697 37.5873 30.7326 37.5873 30.4661C37.5873 30.2349 37.2778 30.0977 36.884 30.0037C36.3294 29.8665 35.5818 29.651 35.5979 28.8907C35.5979 28.5576 35.7225 28.2912 35.9837 28.0913C36.2409 27.8875 36.5705 27.7896 36.9523 27.7896C37.5672 27.7896 38.0615 28.0717 38.3227 28.542L37.6475 28.9103C37.523 28.636 37.2858 28.4989 36.9523 28.4989C36.6509 28.4989 36.4137 28.6282 36.4137 28.8829C36.4137 29.1219 36.7232 29.2434 37.109 29.3531V29.3453Z" fill="#103559"/>
<path d="M43.4677 26.9103C42.8027 26.8562 42.4794 27.1103 42.4794 27.6683V27.7433H43.4677V28.543H42.4794V31.5792H41.5731V28.543H40.9355V27.7433H41.5731V27.6683C41.5731 26.6188 42.2289 26.044 43.4677 26.1107V26.9103Z" fill="#103559"/>
<path d="M44.5052 31.031C44.0971 30.663 43.8887 30.2167 43.8887 29.6843C43.8887 29.1519 44.0971 28.7056 44.5052 28.3376C44.9133 27.9696 45.417 27.7896 45.9988 27.7896C46.5806 27.7896 47.0842 27.9696 47.4923 28.3376C47.9005 28.7056 48.1089 29.1519 48.1089 29.6843C48.1089 30.2167 47.9005 30.663 47.4923 31.031C47.0842 31.3989 46.5892 31.579 45.9988 31.579C45.4083 31.579 44.9133 31.3989 44.5052 31.031ZM45.9988 30.8235C46.3504 30.8235 46.6457 30.7139 46.8845 30.4986C47.1233 30.2832 47.2448 30.0092 47.2448 29.6843C47.2448 29.3594 47.1233 29.0853 46.8845 28.87C46.6457 28.6547 46.3504 28.5451 45.9988 28.5451C45.6471 28.5451 45.3518 28.6547 45.113 28.87C44.8742 29.0853 44.7527 29.3594 44.7527 29.6843C44.7527 30.0092 44.8742 30.2832 45.113 30.4986C45.3518 30.7139 45.6471 30.8235 45.9988 30.8235Z" fill="#103559"/>
<path d="M49.4006 28.4811C49.6191 28.0201 50.0385 27.7896 50.6413 27.7896V28.6591C50.3137 28.6348 50.021 28.7116 49.772 28.8815C49.523 29.0473 49.4006 29.3223 49.4006 29.7025V31.579H48.5312V27.8543H49.4006V28.4811Z" fill="#103559"/>
<path d="M56.972 30.0165C56.972 30.4623 56.8223 30.836 56.519 31.1333C56.2156 31.4305 55.8475 31.5792 55.4107 31.5792H53.1738V26.1055H55.2448C55.6695 26.1055 56.0336 26.2541 56.3248 26.5429C56.6241 26.8316 56.7697 27.1926 56.7697 27.6215C56.7697 28.0971 56.5918 28.4665 56.2399 28.7383C56.6929 28.9888 56.968 29.4432 56.968 30.0122L56.972 30.0165ZM54.0313 26.9505V28.3901H55.2448C55.625 28.3901 55.9163 28.0758 55.9163 27.6724C55.9163 27.269 55.625 26.9548 55.2448 26.9548H54.0313V26.9505ZM55.4107 30.7341C55.8071 30.7341 56.1185 30.3986 56.1185 29.9697C56.1185 29.5409 55.8071 29.2054 55.4107 29.2054H54.0313V30.7384H55.4107V30.7341Z" fill="#103559"/>
<path d="M58.7369 30.0131C58.8659 30.5612 59.3684 30.8626 60.0488 30.8626C60.5157 30.8626 60.867 30.71 61.1072 30.4163L61.8365 30.7922C61.4362 31.3167 60.8359 31.579 60.0443 31.579C59.3817 31.579 58.8392 31.3989 58.4301 31.0466C58.021 30.6865 57.8164 30.2324 57.8164 29.6843C57.8164 29.1362 58.021 28.6978 58.4212 28.3376C58.8214 27.9696 59.3462 27.7896 59.9776 27.7896C60.5735 27.7896 61.0671 27.9775 61.454 28.3454C61.8409 28.7134 62.0366 29.1675 62.0366 29.6921C62.0366 29.7704 62.0277 29.88 62.0055 30.017H58.7458L58.7369 30.0131ZM61.1383 29.3789C61.0138 28.7956 60.5469 28.4903 59.9687 28.4903C59.315 28.4903 58.857 28.8309 58.7325 29.3789H61.1427H61.1383Z" fill="#103559"/>
<path d="M63.6969 29.3453C64.2676 29.4668 65.0071 29.698 64.991 30.47C64.991 30.8149 64.8503 31.0892 64.577 31.2851C64.3038 31.4811 63.9621 31.579 63.5482 31.579C62.8168 31.579 62.2742 31.2616 62.0371 30.7365L62.7243 30.3485C62.8489 30.6934 63.1222 30.8697 63.5442 30.8697C63.9662 30.8697 64.1751 30.7326 64.1751 30.4661C64.1751 30.2349 63.8657 30.0977 63.4718 30.0037C62.9172 29.8665 62.1697 29.651 62.1858 28.8907C62.1858 28.5576 62.3104 28.2912 62.5716 28.0913C62.8288 27.8875 63.1584 27.7896 63.5402 27.7896C64.1551 27.7896 64.6494 28.0717 64.9106 28.542L64.2354 28.9103C64.1109 28.636 63.8737 28.4989 63.5402 28.4989C63.2387 28.4989 63.0016 28.6282 63.0016 28.8829C63.0016 29.1219 63.3111 29.2434 63.6969 29.3531V29.3453Z" fill="#103559"/>
<path d="M67.9442 28.4369H66.9772V30.3177C66.9772 30.8198 67.3038 30.8113 67.9442 30.7815V31.5432C66.6548 31.7006 66.1331 31.3474 66.1331 30.3219V28.4412H65.4121V27.6242H66.1331V26.7774L66.9772 26.5264V27.6242H67.9442V28.4412V28.4369Z" fill="#103559"/>
<path d="M19.9909 2.57168C19.8804 1.48267 19.4429 1.26318 18.5933 1.26318H14.974C14.1797 1.26318 13.9885 1.39825 13.6869 2.27199L10.9725 11.098L8.25804 2.27199C7.95644 1.39825 7.76528 1.26318 6.97092 1.26318H3.34742C2.49783 1.26318 2.06029 1.48267 1.94985 2.57168L0.0297779 19.8987C-0.050933 20.5234 0.00429027 20.7724 0.552275 20.8526L4.69402 21.452C5.32271 21.5322 5.4629 21.3971 5.54361 20.9328L6.44842 12.8159L8.39398 20.4179C8.58513 21.0426 8.83151 21.2916 9.46446 21.2916H12.4805C13.1092 21.2916 13.3598 21.0468 13.551 20.4179L15.471 12.8159L16.4013 20.9328C16.4821 21.3971 16.6222 21.5322 17.2509 21.452L21.3927 20.8526C21.9407 20.7724 21.9959 20.5276 21.9152 19.8987L19.9909 2.57168Z" fill="#103559"/>
<path d="M29.9634 5.89453C25.3152 5.89453 22.7891 9.08043 22.7891 13.4735C22.7891 17.8665 25.3152 21.0524 29.9634 21.0524C34.6115 21.0524 37.1377 17.8665 37.1377 13.4735C37.1377 9.08043 34.6115 5.89453 29.9634 5.89453ZM29.9634 16.0952C28.8477 16.0952 28.2498 15.0498 28.2498 13.4693C28.2498 11.8888 28.8477 10.8435 29.9634 10.8435C31.0791 10.8435 31.677 11.8888 31.677 13.4693C31.677 15.0498 31.0791 16.0952 29.9634 16.0952Z" fill="#103559"/>
<path d="M47.562 5.90295C46.6091 5.90295 39.4797 6.09226 39.0159 6.74435C38.8262 6.96311 38.8262 7.26181 38.8262 7.77507L39.0454 19.6136C39.0707 20.699 39.3195 21.0524 40.2681 21.0524H43.5904C44.5432 21.0524 44.8131 20.699 44.8131 19.6136V11.4394C45.222 11.3048 45.3569 11.2501 45.8207 11.2206C46.4447 11.1954 46.744 11.3847 46.938 11.8979C47.0729 12.4407 47.1024 13.2568 47.1024 14.3675L47.0771 19.6094C47.0771 20.6948 47.3765 21.0482 48.3293 21.0482H51.7317C52.6845 21.0482 52.9291 20.6948 52.9544 19.6094L53.1736 12.386C53.1989 10.619 52.8195 8.9909 51.9214 7.7961C50.9686 6.60131 49.552 5.89453 47.5662 5.89453L47.562 5.90295Z" fill="#103559"/>
<path d="M60.3318 7.5791H56.9119C55.9761 7.5791 55.707 7.9018 55.707 8.98724V19.6195C55.707 20.7008 55.9761 21.0528 56.9119 21.0528H60.3856C61.3213 21.0528 61.6153 20.7008 61.6153 19.6195L61.5615 8.98724C61.5615 7.93114 61.2675 7.5791 60.3318 7.5791Z" fill="#103559"/>
<path d="M58.8722 0.420898C56.8467 0.420898 55.707 1.66818 55.707 3.36827C55.707 5.06836 56.8467 6.31564 58.8722 6.31564C60.8977 6.31564 62.0373 5.06836 62.0373 3.36827C62.0373 1.66818 60.8977 0.420898 58.8722 0.420898Z" fill="#103559"/>
<path d="M73.5577 6.33578H71.454V2.67527C71.454 1.59099 71.1756 1.26318 70.2116 1.26318H66.9468C65.9785 1.26318 65.6743 1.61621 65.6743 2.67527V6.33578H64.0162C63.1036 6.33578 62.8809 6.49968 62.8809 7.34021V10.2989C62.8809 11.1394 63.1036 11.3033 64.0162 11.3033H65.6743V16.4558C65.6743 19.9271 67.5252 21.4737 71.0127 21.4737C72.0367 21.4737 73.0607 21.3939 74.029 21.2005C74.4446 21.1207 74.556 21.0114 74.556 20.6038L74.4189 16.4515C74.4189 16.0985 74.2261 15.964 73.8662 16.0439C73.562 16.1237 73.2578 16.1784 72.8422 16.1784C72.041 16.1784 71.4583 15.9052 71.4583 14.7411V11.2949H73.562C74.4746 11.2949 74.6974 11.131 74.6974 10.2905V7.33181C74.6974 6.49128 74.4746 6.32737 73.562 6.32737L73.5577 6.33578Z" fill="#103559"/>
<path d="M82.7153 5.89453C78.0672 5.89453 75.541 9.08043 75.541 13.4735C75.541 17.8665 78.0672 21.0524 82.7153 21.0524C87.3635 21.0524 89.8896 17.8665 89.8896 13.4735C89.8896 9.08043 87.3635 5.89453 82.7153 5.89453ZM82.7153 16.0952C81.5996 16.0952 81.0017 15.0498 81.0017 13.4693C81.0017 11.8888 81.5996 10.8435 82.7153 10.8435C83.8311 10.8435 84.4289 11.8888 84.4289 13.4693C84.4289 15.0498 83.8311 16.0952 82.7153 16.0952Z" fill="#103559"/>
<path d="M91.2232 6.48849C90.7356 6.13669 89.9368 6.33995 89.4324 6.94192C88.9279 7.5439 88.9153 8.31786 89.3988 8.66966C89.8864 9.02146 90.6851 8.8182 91.1896 8.21623C91.694 7.61426 91.7066 6.84029 91.2232 6.48849Z" fill="#103559"/>
<path d="M79.7488 5.46499C80.322 5.37697 80.6975 4.65184 80.5868 3.84287C80.4762 3.0339 79.9267 2.44709 79.3535 2.53511C78.7803 2.62313 78.4048 3.34827 78.5154 4.15723C78.6261 4.9662 79.1756 5.55302 79.7488 5.46499Z" fill="#103559"/>
<path d="M87.175 6.20877C87.9681 6.60908 89.1685 5.85197 89.852 4.51615C90.5355 3.18033 90.4478 1.77054 89.6505 1.37023C88.8575 0.969918 87.657 1.72703 86.9735 3.06285C86.29 4.39867 86.3777 5.80846 87.175 6.20877Z" fill="#103559"/>
<path d="M83.0692 5.0458C83.8684 5.14752 84.6439 4.10073 84.7982 2.71067C84.9525 1.31637 84.4303 0.108539 83.6271 0.00682736C82.8279 -0.0948845 82.0524 0.951901 81.8981 2.34196C81.7438 3.73626 82.2661 4.94409 83.0692 5.0458Z" fill="#103559"/>
</g>
<defs>
<clipPath id="clip0_8_1497">
<rect width="92" height="32" fill="white"/>
</clipPath>
</defs>
</svg>
