<svg width="115" height="40" viewBox="0 0 115 40" fill="none" xmlns="http://www.w3.org/2000/svg">
<g clip-path="url(#clip0_504_152)">
<path d="M32.5685 32.6316C33.2107 32.6316 33.7423 32.8491 34.1687 33.2787C34.6055 33.7083 34.8161 34.244 34.8161 34.8805C34.8161 35.5169 34.6055 36.042 34.1687 36.4823C33.7423 36.9119 33.2107 37.1293 32.5685 37.1293H31.1842V39.4737H30.0684V32.6369H32.5685V32.6316ZM32.5685 36.0686C33.2265 36.0686 33.7002 35.57 33.7002 34.8752C33.7002 34.1803 33.2265 33.6818 32.5685 33.6818H31.1842V36.0633H32.5685V36.0686Z" fill="#103559"/>
<path d="M36.4956 37.5163C36.657 38.2014 37.2858 38.5782 38.1372 38.5782C38.7215 38.5782 39.1611 38.3873 39.4615 38.0203L40.3741 38.4901C39.8733 39.1458 39.1221 39.4737 38.1316 39.4737C37.3025 39.4737 36.6236 39.2486 36.1117 38.8082C35.5997 38.358 35.3438 37.7903 35.3438 37.1052C35.3438 36.4202 35.5997 35.8721 36.1005 35.4219C36.6013 34.9619 37.258 34.7368 38.0481 34.7368C38.7938 34.7368 39.4115 34.9717 39.89 35.4317C40.3741 35.8917 40.619 36.4593 40.619 37.115C40.619 37.2129 40.6079 37.3499 40.58 37.5212H36.5012L36.4956 37.5163ZM39.5005 36.7235C39.3447 35.9944 38.7604 35.6127 38.037 35.6127C37.219 35.6127 36.6459 36.0385 36.4901 36.7235H39.5005Z" fill="#103559"/>
<path d="M43.7843 35.5462H42.5735V37.8971C42.5735 38.5247 42.9824 38.5141 43.7843 38.4769V39.429C42.1698 39.6258 41.5166 39.1843 41.5166 37.9024V35.5515H40.6191V34.5302H41.5166V33.4718L42.5735 33.158V34.5302H43.7843V35.5515V35.5462Z" fill="#103559"/>
<path d="M46.3853 36.6815C47.0986 36.8334 48.023 37.1224 48.0029 38.0874C48.0029 38.5185 47.8271 38.8613 47.4855 39.1063C47.1438 39.3512 46.7168 39.4737 46.1994 39.4737C45.2851 39.4737 44.6069 39.0769 44.3105 38.4205L45.1696 37.9355C45.3253 38.3666 45.6669 38.587 46.1944 38.587C46.7219 38.587 46.9831 38.4156 46.9831 38.0825C46.9831 37.7935 46.5963 37.622 46.104 37.5045C45.4107 37.333 44.4763 37.0636 44.4964 36.1133C44.4964 35.6969 44.6522 35.3638 44.9787 35.114C45.3002 34.8593 45.7121 34.7368 46.1894 34.7368C46.958 34.7368 47.5759 35.0895 47.9024 35.6773L47.0584 36.1378C46.9027 35.7949 46.6063 35.6234 46.1894 35.6234C45.8126 35.6234 45.5162 35.7851 45.5162 36.1035C45.5162 36.4023 45.903 36.5542 46.3853 36.6913V36.6815Z" fill="#103559"/>
<path d="M54.3351 33.6377C53.5039 33.57 53.0997 33.8876 53.0997 34.5852V34.6789H54.3351V35.6785H53.0997V39.4737H51.9669V35.6785H51.1699V34.6789H51.9669V34.5852C51.9669 33.2733 52.7866 32.5548 54.3351 32.6381V33.6377Z" fill="#103559"/>
<path d="M55.632 38.7886C55.1218 38.3286 54.8613 37.7707 54.8613 37.1052C54.8613 36.4397 55.1218 35.8819 55.632 35.4219C56.1421 34.9619 56.7717 34.7368 57.4989 34.7368C58.2262 34.7368 58.8557 34.9619 59.3659 35.4219C59.8761 35.8819 60.1366 36.4397 60.1366 37.1052C60.1366 37.7707 59.8761 38.3286 59.3659 38.7886C58.8557 39.2486 58.237 39.4737 57.4989 39.4737C56.7608 39.4737 56.1421 39.2486 55.632 38.7886ZM57.4989 38.5292C57.9385 38.5292 58.3076 38.3922 58.6061 38.1231C58.9046 37.8539 59.0565 37.5114 59.0565 37.1052C59.0565 36.6991 58.9046 36.3565 58.6061 36.0874C58.3076 35.8183 57.9385 35.6812 57.4989 35.6812C57.0593 35.6812 56.6903 35.8183 56.3918 36.0874C56.0933 36.3565 55.9413 36.6991 55.9413 37.1052C55.9413 37.5114 56.0933 37.8539 56.3918 38.1231C56.6903 38.3922 57.0593 38.5292 57.4989 38.5292Z" fill="#103559"/>
<path d="M61.7508 35.6013C62.0238 35.025 62.5481 34.7368 63.3017 34.7368V35.8237C62.8921 35.7934 62.5262 35.8894 62.215 36.1018C61.9037 36.309 61.7508 36.6528 61.7508 37.128V39.4737H60.6641V34.8177H61.7508V35.6013Z" fill="#103559"/>
<path d="M71.2145 37.5203C71.2145 38.0777 71.0274 38.5448 70.6482 38.9163C70.269 39.2879 69.8089 39.4737 69.2628 39.4737H66.4668V32.6316H69.0555C69.5864 32.6316 70.0415 32.8174 70.4055 33.1783C70.7797 33.5393 70.9617 33.9905 70.9617 34.5266C70.9617 35.1211 70.7392 35.5829 70.2993 35.9226C70.8656 36.2358 71.2095 36.8037 71.2095 37.515L71.2145 37.5203ZM67.5387 33.6879V35.4873H69.0555C69.5308 35.4873 69.8949 35.0945 69.8949 34.5903C69.8949 34.086 69.5308 33.6932 69.0555 33.6932H67.5387V33.6879ZM69.2628 38.4174C69.7583 38.4174 70.1477 37.9981 70.1477 37.4619C70.1477 36.9258 69.7583 36.5065 69.2628 36.5065H67.5387V38.4227H69.2628V38.4174Z" fill="#103559"/>
<path d="M73.4202 37.5163C73.5814 38.2014 74.2095 38.5782 75.06 38.5782C75.6437 38.5782 76.0828 38.3873 76.383 38.0203L77.2946 38.4901C76.7943 39.1458 76.0439 39.4737 75.0545 39.4737C74.2262 39.4737 73.548 39.2486 73.0366 38.8082C72.5252 38.358 72.2695 37.7903 72.2695 37.1052C72.2695 36.4202 72.5252 35.8721 73.0255 35.4219C73.5258 34.9619 74.1817 34.7368 74.9711 34.7368C75.7159 34.7368 76.333 34.9717 76.8166 35.4317C77.3002 35.8917 77.5448 36.4593 77.5448 37.115C77.5448 37.2129 77.5336 37.3499 77.5059 37.5212H73.4313L73.4202 37.5163ZM76.4219 36.7235C76.2663 35.9944 75.6826 35.6127 74.96 35.6127C74.1428 35.6127 73.5703 36.0385 73.4146 36.7235H76.4275H76.4219Z" fill="#103559"/>
<path d="M79.6197 36.6815C80.333 36.8334 81.2574 37.1224 81.2373 38.0874C81.2373 38.5185 81.0614 38.8613 80.7198 39.1063C80.3782 39.3512 79.9512 39.4737 79.4338 39.4737C78.5195 39.4737 77.8413 39.0769 77.5449 38.4205L78.404 37.9355C78.5597 38.3666 78.9013 38.587 79.4288 38.587C79.9562 38.587 80.2175 38.4156 80.2175 38.0825C80.2175 37.7935 79.8307 37.622 79.3383 37.5045C78.6451 37.333 77.7107 37.0636 77.7308 36.1133C77.7308 35.6969 77.8865 35.3638 78.2131 35.114C78.5346 34.8593 78.9465 34.7368 79.4237 34.7368C80.1924 34.7368 80.8103 35.0895 81.1368 35.6773L80.2928 36.1378C80.1371 35.7949 79.8407 35.6234 79.4237 35.6234C79.047 35.6234 78.7506 35.7851 78.7506 36.1035C78.7506 36.4023 79.1374 36.5542 79.6197 36.6913V36.6815Z" fill="#103559"/>
<path d="M84.9308 35.5462H83.722V37.8971C83.722 38.5247 84.1302 38.5141 84.9308 38.4769V39.429C83.319 39.6258 82.6669 39.1843 82.6669 37.9024V35.5515H81.7656V34.5302H82.6669V33.4718L83.722 33.158V34.5302H84.9308V35.5515V35.5462Z" fill="#103559"/>
<path d="M24.9886 3.21448C24.8505 1.85322 24.3036 1.57886 23.2416 1.57886H18.7175C17.7246 1.57886 17.4856 1.7477 17.1086 2.83987L13.7156 13.8724L10.3226 2.83987C9.94555 1.7477 9.7066 1.57886 8.71364 1.57886H4.18428C3.12229 1.57886 2.57537 1.85322 2.43731 3.21448L0.0372224 24.8732C-0.0636662 25.6541 0.00536284 25.9654 0.690344 26.0656L5.86752 26.8149C6.65339 26.9151 6.82862 26.7463 6.92951 26.1659L8.06052 16.0198L10.4925 25.5222C10.7314 26.3031 11.0394 26.6144 11.8306 26.6144H15.6006C16.3865 26.6144 16.6998 26.3083 16.9387 25.5222L19.3388 16.0198L20.5017 26.1659C20.6026 26.7463 20.7778 26.9151 21.5637 26.8149L26.7409 26.0656C27.4258 25.9654 27.4949 25.6594 27.394 24.8732L24.9886 3.21448Z" fill="#103559"/>
<path d="M37.4542 7.36841C31.644 7.36841 28.4863 11.3508 28.4863 16.8421C28.4863 22.3334 31.644 26.3158 37.4542 26.3158C43.2644 26.3158 46.4221 22.3334 46.4221 16.8421C46.4221 11.3508 43.2644 7.36841 37.4542 7.36841ZM37.4542 20.1193C36.0596 20.1193 35.3122 18.8125 35.3122 16.8369C35.3122 14.8613 36.0596 13.5546 37.4542 13.5546C38.8489 13.5546 39.5962 14.8613 39.5962 16.8369C39.5962 18.8125 38.8489 20.1193 37.4542 20.1193Z" fill="#103559"/>
<path d="M59.451 7.37893C58.2599 7.37893 49.3481 7.61557 48.7684 8.43068C48.5312 8.70414 48.5312 9.07751 48.5312 9.71908L48.8053 24.5173C48.8369 25.874 49.1479 26.3158 50.3336 26.3158H54.4865C55.6776 26.3158 56.0149 25.874 56.0149 24.5173V14.2995C56.5261 14.1312 56.6947 14.0628 57.2744 14.026C58.0544 13.9945 58.4286 14.2311 58.671 14.8727C58.8397 15.5511 58.8765 16.5713 58.8765 17.9596L58.8449 24.512C58.8449 25.8688 59.2191 26.3105 60.4102 26.3105H64.6632C65.8542 26.3105 66.1599 25.8688 66.1915 24.512L66.4656 15.4827C66.4972 13.274 66.0229 11.2389 64.9003 9.74537C63.7093 8.25188 61.9385 7.36841 59.4563 7.36841L59.451 7.37893Z" fill="#103559"/>
<path d="M75.4138 9.47363H71.1389C69.9692 9.47363 69.6328 9.877 69.6328 11.2338V24.5241C69.6328 25.8757 69.9692 26.3157 71.1389 26.3157H75.481C76.6507 26.3157 77.0181 25.8757 77.0181 24.5241L76.9509 11.2338C76.9509 9.91367 76.5834 9.47363 75.4138 9.47363Z" fill="#103559"/>
<path d="M73.5892 0.526367C71.0573 0.526367 69.6328 2.08547 69.6328 4.21058C69.6328 6.33569 71.0573 7.89479 73.5892 7.89479C76.1211 7.89479 77.5457 6.33569 77.5457 4.21058C77.5457 2.08547 76.1211 0.526367 73.5892 0.526367Z" fill="#103559"/>
<path d="M91.9476 7.9196H89.318V3.34397C89.318 1.98862 88.9699 1.57886 87.7649 1.57886H83.684C82.4736 1.57886 82.0934 2.02014 82.0934 3.34397V7.9196H80.0208C78.88 7.9196 78.6016 8.12448 78.6016 9.17514V12.8735C78.6016 13.9241 78.88 14.129 80.0208 14.129H82.0934V20.5696C82.0934 24.9088 84.407 26.842 88.7664 26.842C90.0464 26.842 91.3264 26.7422 92.5367 26.5006C93.0562 26.4007 93.1955 26.2642 93.1955 25.7546L93.0241 20.5643C93.0241 20.123 92.7831 19.9549 92.3332 20.0547C91.953 20.1546 91.5727 20.2228 91.0532 20.2228C90.0518 20.2228 89.3234 19.8814 89.3234 18.4262V14.1185H91.953C93.0937 14.1185 93.3722 13.9136 93.3722 12.863V9.16463C93.3722 8.11397 93.0937 7.90909 91.953 7.90909L91.9476 7.9196Z" fill="#103559"/>
<path d="M103.394 7.36841C97.5835 7.36841 94.4258 11.3508 94.4258 16.8421C94.4258 22.3334 97.5835 26.3158 103.394 26.3158C109.204 26.3158 112.362 22.3334 112.362 16.8421C112.362 11.3508 109.204 7.36841 103.394 7.36841ZM103.394 20.1193C101.999 20.1193 101.252 18.8125 101.252 16.8369C101.252 14.8613 101.999 13.5546 103.394 13.5546C104.788 13.5546 105.536 14.8613 105.536 16.8369C105.536 18.8125 104.788 20.1193 103.394 20.1193Z" fill="#103559"/>
<path d="M114.029 8.11049C113.42 7.67074 112.422 7.92482 111.791 8.67728C111.16 9.42975 111.145 10.3972 111.749 10.837C112.358 11.2767 113.357 11.0226 113.987 10.2702C114.618 9.5177 114.634 8.55024 114.029 8.11049Z" fill="#103559"/>
<path d="M99.685 6.83124C100.401 6.72122 100.871 5.8148 100.733 4.80359C100.594 3.79238 99.9074 3.05886 99.1909 3.16888C98.4744 3.27891 98.005 4.18533 98.1433 5.19654C98.2817 6.20775 98.9685 6.94127 99.685 6.83124Z" fill="#103559"/>
<path d="M108.969 7.76084C109.961 8.26123 111.461 7.31484 112.315 5.64507C113.17 3.97529 113.06 2.21305 112.064 1.71266C111.072 1.21228 109.572 2.15866 108.717 3.82844C107.863 5.49821 107.973 7.26045 108.969 7.76084Z" fill="#103559"/>
<path d="M103.838 6.30726C104.837 6.4344 105.806 5.12591 105.999 3.38834C106.192 1.64546 105.539 0.135674 104.535 0.0085342C103.536 -0.118606 102.566 1.18988 102.374 2.92745C102.181 4.67033 102.834 6.18012 103.838 6.30726Z" fill="#103559"/>
</g>
<defs>
<clipPath id="clip0_504_152">
<rect width="115" height="40" fill="white"/>
</clipPath>
</defs>
</svg>
