<svg width="20" height="20" viewBox="0 0 20 20" fill="none" xmlns="http://www.w3.org/2000/svg">
<path d="M3.76762 10.1406L5.66605 9.44918C5.72465 9.42578 5.79496 9.41406 5.86523 9.41406H18.0293C18.3575 9.41406 18.6152 9.67184 18.6152 10V18.2422C18.6152 19.2148 17.8301 20 16.8574 20H5.13867C4.16598 20 3.38086 19.2148 3.38086 18.2422V10.6914C3.38086 10.4453 3.53324 10.2227 3.76762 10.1406Z" fill="#FC1A40"/>
<path d="M3.38086 10.6914V18.2422C3.38086 19.2148 4.16598 20 5.13867 20H10.998V9.41406H5.86523C5.79492 9.41406 5.72461 9.42578 5.66605 9.44918L3.76762 10.1406C3.53324 10.2227 3.38086 10.4453 3.38086 10.6914Z" fill="#C60034"/>
<path d="M3.59162 3.81984C3.7908 3.01124 4.38849 2.37847 5.19708 2.12062C5.99396 1.87449 6.84947 2.05031 7.47052 2.61277L8.82994 3.80812L9.09943 2.01519C9.22833 1.19488 9.75568 0.50343 10.5408 0.175344C10.6931 0.116712 10.8455 0.0698366 10.9978 0.0463991C11.6424 -0.0825072 12.3103 0.0581178 12.8494 0.456594C13.5643 0.972219 13.9275 1.83941 13.8104 2.70656C13.6814 3.57374 13.0955 4.31202 12.2635 4.60499L10.9978 5.06202L9.43923 5.63624C9.42751 5.63624 9.42751 5.63624 9.42751 5.63624L6.72048 6.6323C6.45099 6.72609 6.16974 6.773 5.90021 6.773C5.32591 6.773 4.76345 6.56199 4.31814 6.16359C3.66193 5.57765 3.38068 4.67527 3.59162 3.81984Z" fill="#FE9923"/>
<path d="M4.31836 6.16361C4.76367 6.56201 5.32617 6.77303 5.90043 6.77303C6.16992 6.77303 6.45117 6.72611 6.7207 6.63232L9.42773 5.63627C9.42773 5.63627 9.42773 5.63627 9.43945 5.63627L10.998 5.06205V0.0463867C10.8457 0.0698633 10.6934 0.116699 10.541 0.175332C9.7559 0.503418 9.22852 1.19486 9.09965 2.01518L8.83016 3.80811L7.47074 2.61275C6.84969 2.05029 5.99418 1.87447 5.1973 2.12061C4.38871 2.37846 3.79105 3.01123 3.59184 3.81982C3.38086 4.67529 3.66211 5.57768 4.31836 6.16361Z" fill="#FE8821"/>
<path d="M1.37685 9.14426L2.17372 11.3474C2.26751 11.5818 2.49017 11.7224 2.72454 11.7224C2.79486 11.7224 2.86517 11.7107 2.92372 11.6873L8.98236 9.48414L9.5331 7.66774L10.9979 7.99582L12.287 8.28879L18.3456 6.08567C18.6503 5.96852 18.8026 5.62864 18.6972 5.33567L17.8886 3.13262C17.7362 2.68731 17.4081 2.33567 16.9862 2.13649C16.5643 1.93731 16.0839 1.91383 15.6386 2.07789L10.9979 3.76539L10.6815 3.88254C10.6815 3.88254 9.41587 6.17946 9.38068 6.17946C9.3572 6.17946 8.85333 5.89821 8.36114 5.62864C7.86907 5.3591 7.37685 5.07789 7.37685 5.07789L2.43157 6.88254C1.98626 7.0466 1.6347 7.37477 1.43552 7.79664C1.23622 8.21848 1.21282 8.69899 1.37685 9.14426Z" fill="#FF3E75"/>
<path d="M1.37695 9.14449L2.17383 11.3476C2.26762 11.582 2.49027 11.7226 2.72465 11.7226C2.79496 11.7226 2.86527 11.7109 2.92383 11.6875L8.98246 9.48438L9.5332 7.66797L10.998 7.99605V3.76562L10.6816 3.88277C10.6816 3.88277 9.41602 6.17969 9.38082 6.17969C9.35734 6.17969 8.85348 5.89844 8.36129 5.62887C7.86918 5.35934 7.37695 5.07812 7.37695 5.07812L2.43168 6.88277C1.98637 7.04684 1.6348 7.375 1.43563 7.79688C1.23633 8.21871 1.21293 8.69922 1.37695 9.14449Z" fill="#FC1A40"/>
<path d="M12.7559 9.41406V20H9.24023V9.41406H12.7559Z" fill="#FCBF29"/>
<path d="M10.6816 3.88281L10.9981 4.75L12.2871 8.2891L10.9981 8.75789L9.53324 9.28523L8.9825 9.48441L7.37695 5.07816L10.6816 3.88281Z" fill="#FCBF29"/>
<path d="M9.24023 9.41406H10.998V20H9.24023V9.41406Z" fill="#FE9923"/>
<path d="M7.37695 5.07816L8.98246 9.48441L9.5332 9.2852L10.998 8.75785V4.75L10.6816 3.88281L7.37695 5.07816Z" fill="#FE9923"/>
</svg>
